# xmcd
#
# Track frame offsets: 
#        183
#        10748
#        19375
#        30850
#        42830
#        53893
#        64030
#        75793
#        84248
#        96278
#        106208
#        116783
#        126598
#        136953
#        146508
#        158888
#        169820
#        179525
#        189678
#        201233
#        213093
#        223783
#        235213
#        247508
#        259680
#        269620
#
# Disc length: 3751 seconds
#
# Revision: 5
# Processed by: cddbd v1.5.2PL0 Copyright (c) Steve Scherf et al.
# Submitted via: ExactAudioCopy v0.99pb5
#
DISCID=670ea51a
DTITLE=Don Gibson - A Legend In My Time
DYEAR=1987
DGENRE=Country
TTITLE0=Sittin' here cryin'
TTITLE1=Blue, blue day
TTITLE2=Oh lonesome me
TTITLE3=I can't stop loving you
TTITLE4=Look who's blue
TTITLE5=If you don't know it
TTITLE6=Bad, bad day
TTITLE7=Sweet, sweet girl
TTITLE8=Give myself a party
TTITLE9=Who cares
TTITLE10=Didn't work out, did it
TTITLE11=Lonesome old house
TTITLE12=Don't tell me your troubles
TTITLE13=I couldn't care less
TTITLE14=Just one time
TTITLE15=(I'd be) a legend in my time
TTITLE16=Far far away
TTITLE17=Sweet dreams
TTITLE18=Sea of heartbreak
TTITLE19=I sat back and let it happen
TTITLE20=Lonesome number one
TTITLE21=I can mend your broken heart
TTITLE22=If you knew me
TTITLE23=If you don't know the sorrow
TTITLE24=Think of me
TTITLE25=I'm crying inside
EXTD=
EXTT0=
EXTT1=
EXTT2=
EXTT3=
EXTT4=
EXTT5=
EXTT6=
EXTT7=
EXTT8=
EXTT9=
EXTT10=
EXTT11=
EXTT12=
EXTT13=
EXTT14=
EXTT15=
EXTT16=
EXTT17=
EXTT18=
EXTT19=
EXTT20=
EXTT21=
EXTT22=
EXTT23=
EXTT24=
EXTT25=
PLAYORDER=
